<svg width="20" height="20" viewBox="0 0 20 20" fill="none" xmlns="http://www.w3.org/2000/svg">
<g id="gg:menu-round">
<g id="Group">
<path id="Vector" d="M6.66146 5.8125C6.44044 5.8125 6.22848 5.9003 6.0722 6.05658C5.91592 6.21286 5.82812 6.42482 5.82812 6.64583C5.82812 6.86685 5.91592 7.07881 6.0722 7.23509C6.22848 7.39137 6.44044 7.47917 6.66146 7.47917H13.3281C13.5491 7.47917 13.7611 7.39137 13.9174 7.23509C14.0737 7.07881 14.1615 6.86685 14.1615 6.64583C14.1615 6.42482 14.0737 6.21286 13.9174 6.05658C13.7611 5.9003 13.5491 5.8125 13.3281 5.8125H6.66146ZM5.82812 9.99333C5.82812 9.77232 5.91592 9.56036 6.0722 9.40408C6.22848 9.2478 6.44044 9.16 6.66146 9.16H13.3281C13.5491 9.16 13.7611 9.2478 13.9174 9.40408C14.0737 9.56036 14.1615 9.77232 14.1615 9.99333C14.1615 10.2143 14.0737 10.4263 13.9174 10.5826C13.7611 10.7389 13.5491 10.8267 13.3281 10.8267H6.66146C6.44044 10.8267 6.22848 10.7389 6.0722 10.5826C5.91592 10.4263 5.82812 10.2143 5.82812 9.99333ZM6.66146 12.5075C6.44044 12.5075 6.22848 12.5953 6.0722 12.7516C5.91592 12.9079 5.82812 13.1198 5.82812 13.3408C5.82812 13.5618 5.91592 13.7738 6.0722 13.9301C6.22848 14.0864 6.44044 14.1742 6.66146 14.1742H13.3281C13.5491 14.1742 13.7611 14.0864 13.9174 13.9301C14.0737 13.7738 14.1615 13.5618 14.1615 13.3408C14.1615 13.1198 14.0737 12.9079 13.9174 12.7516C13.7611 12.5953 13.5491 12.5075 13.3281 12.5075H6.66146Z" fill="#E4C967"/>
<path id="Vector_2" fill-rule="evenodd" clip-rule="evenodd" d="M18.3307 9.9974C18.3307 14.5999 14.5999 18.3307 9.9974 18.3307C5.3949 18.3307 1.66406 14.5999 1.66406 9.9974C1.66406 5.3949 5.3949 1.66406 9.9974 1.66406C14.5999 1.66406 18.3307 5.3949 18.3307 9.9974ZM16.6641 9.9974C16.6641 11.7655 15.9617 13.4612 14.7114 14.7114C13.4612 15.9617 11.7655 16.6641 9.9974 16.6641C8.22929 16.6641 6.53359 15.9617 5.28335 14.7114C4.03311 13.4612 3.33073 11.7655 3.33073 9.9974C3.33073 8.22929 4.03311 6.53359 5.28335 5.28335C6.53359 4.03311 8.22929 3.33073 9.9974 3.33073C11.7655 3.33073 13.4612 4.03311 14.7114 5.28335C15.9617 6.53359 16.6641 8.22929 16.6641 9.9974Z" fill="#E4C967"/>
</g>
</g>
</svg>
