<svg width="27" height="28" viewBox="0 0 27 28" fill="none" xmlns="http://www.w3.org/2000/svg">
<g id="Icon/ Calendar">
<path id="Vector" d="M21.9194 4.22729H5.10175C3.70853 4.22729 2.5791 5.36238 2.5791 6.76258V21.9743C2.5791 23.3745 3.70853 24.5096 5.10175 24.5096H21.9194C23.3126 24.5096 24.442 23.3745 24.442 21.9743V6.76258C24.442 5.36238 23.3126 4.22729 21.9194 4.22729Z" stroke="black" stroke-opacity="0.5" stroke-width="1.48367" stroke-linejoin="round"/>
<path id="Vector_2" d="M6.78351 2.53711V4.2273M20.2376 2.53711V4.2273M24.442 8.45278H2.5791" stroke="black" stroke-opacity="0.5" stroke-width="1.48367" stroke-linecap="round" stroke-linejoin="round"/>
<rect id="Rectangle 39882" x="4.94922" y="11.0649" width="2.4462" height="2.45846" rx="0.494555" fill="black" fill-opacity="0.5"/>
<rect id="Rectangle 39883" x="9.8418" y="11.0649" width="2.4462" height="2.45846" rx="0.494555" fill="black" fill-opacity="0.5"/>
<rect id="Rectangle 39884" x="9.8418" y="14.7527" width="2.4462" height="2.45846" rx="0.494555" fill="black" fill-opacity="0.5"/>
<rect id="Rectangle 39885" x="14.7339" y="14.7527" width="2.4462" height="2.45846" rx="0.494555" fill="black" fill-opacity="0.5"/>
<rect id="Rectangle 39886" x="9.8418" y="18.4402" width="2.4462" height="2.45846" rx="0.494555" fill="black" fill-opacity="0.5"/>
<rect id="Rectangle 39887" x="14.7339" y="18.4402" width="2.4462" height="2.45846" rx="0.494555" fill="black" fill-opacity="0.5"/>
<rect id="Rectangle 39888" x="19.6265" y="14.7527" width="2.4462" height="2.45846" rx="0.494555" fill="black" fill-opacity="0.5"/>
<rect id="Rectangle 39889" x="19.6265" y="18.4402" width="2.4462" height="2.45846" rx="0.494555" fill="black" fill-opacity="0.5"/>
</g>
</svg>
