<svg width="58" height="58" viewBox="0 0 58 58" fill="none" xmlns="http://www.w3.org/2000/svg">
<g id="left arrow">
<g id="Group">
<path id="Vector" d="M35.9967 20.0006L35.9967 38.0006C35.9961 38.1828 35.9459 38.3614 35.8513 38.5172C35.7568 38.673 35.6215 38.8001 35.4601 38.8848C35.2987 38.9694 35.1173 39.0085 34.9354 38.9977C34.7535 38.9869 34.5779 38.9267 34.4277 38.8236L21.4277 29.8236C20.8887 29.4506 20.8887 28.5526 21.4277 28.1786L34.4277 19.1786C34.5776 19.0744 34.7533 19.0133 34.9355 19.0019C35.1177 18.9906 35.2996 19.0294 35.4613 19.1141C35.623 19.1988 35.7584 19.3262 35.8528 19.4825C35.9472 19.6388 35.997 19.818 35.9967 20.0006Z" fill="white" fill-opacity="0.5"/>
<path id="Vector_2" fill-rule="evenodd" clip-rule="evenodd" d="M10.7865 47.3802C0.404502 36.9982 0.404501 20.1685 10.7865 9.7865C21.1685 -0.595501 37.9982 -0.595501 48.3802 9.7865C58.7622 20.1685 58.7622 36.9982 48.3802 47.3802C37.9982 57.7622 21.1685 57.7622 10.7865 47.3802ZM14.2037 43.963C10.1247 39.8841 7.8332 34.3518 7.8332 28.5833C7.8332 22.8148 10.1247 17.2826 14.2037 13.2037C18.2826 9.12473 23.8148 6.8332 29.5833 6.8332C35.3518 6.8332 40.8841 9.12472 44.963 13.2037C49.0419 17.2826 51.3335 22.8148 51.3335 28.5833C51.3335 34.3518 49.0419 39.8841 44.963 43.963C40.8841 48.0419 35.3518 50.3335 29.5833 50.3335C23.8148 50.3335 18.2826 48.0419 14.2037 43.963Z" fill="white" fill-opacity="0.5"/>
</g>
</g>
</svg>
