<svg width="65" height="64" viewBox="0 0 65 64" fill="none" xmlns="http://www.w3.org/2000/svg">
<g id="ic:round-cancel">
<path id="Vector" d="M32.6935 5.58594C18.0681 5.58594 6.24609 17.4292 6.24609 32.0808C6.24609 46.7325 18.0681 58.5757 32.6935 58.5757C47.3189 58.5757 59.1408 46.7325 59.1408 32.0808C59.1408 17.4292 47.3189 5.58594 32.6935 5.58594ZM44.0658 43.4736C43.8212 43.7193 43.5305 43.9141 43.2106 44.0471C42.8906 44.18 42.5477 44.2485 42.2013 44.2485C41.8549 44.2485 41.5119 44.18 41.192 44.0471C40.8721 43.9141 40.5814 43.7193 40.3368 43.4736L32.6935 35.8166L25.0502 43.4736C24.5557 43.969 23.885 44.2473 23.1856 44.2473C22.4863 44.2473 21.8156 43.969 21.3211 43.4736C20.8266 42.9782 20.5488 42.3063 20.5488 41.6058C20.5488 41.2589 20.617 40.9154 20.7495 40.5949C20.882 40.2744 21.0762 39.9832 21.3211 39.7379L28.9644 32.0808L21.3211 24.4238C20.8266 23.9284 20.5488 23.2565 20.5488 22.5559C20.5488 21.8553 20.8266 21.1834 21.3211 20.688C21.8156 20.1926 22.4863 19.9143 23.1856 19.9143C23.885 19.9143 24.5557 20.1926 25.0502 20.688L32.6935 28.3451L40.3368 20.688C40.5816 20.4427 40.8723 20.2482 41.1922 20.1154C41.5121 19.9827 41.855 19.9143 42.2013 19.9143C42.5476 19.9143 42.8905 19.9827 43.2104 20.1154C43.5303 20.2482 43.821 20.4427 44.0658 20.688C44.3107 20.9333 44.5049 21.2245 44.6374 21.545C44.7699 21.8655 44.8381 22.209 44.8381 22.5559C44.8381 22.9028 44.7699 23.2463 44.6374 23.5668C44.5049 23.8873 44.3107 24.1785 44.0658 24.4238L36.4225 32.0808L44.0658 39.7379C45.0708 40.7447 45.0708 42.4403 44.0658 43.4736Z" fill="#CFD3C2" fill-opacity="0.5"/>
</g>
</svg>
