<svg width="49" height="50" viewBox="0 0 49 50" fill="none" xmlns="http://www.w3.org/2000/svg">
<g id="Social/ Facebook">
<ellipse id="Ellipse" cx="24.1614" cy="24.7942" rx="24.0598" ry="24.2239" fill="#38569A"/>
<path id="Vector" d="M29.3165 14.4169L26.6422 14.4126C23.6377 14.4126 21.6961 16.4182 21.6961 19.5225V21.8785H19.0072C18.7748 21.8785 18.5867 22.0681 18.5867 22.3021V25.7157C18.5867 25.9496 18.775 26.139 19.0072 26.139H21.6961V34.7526C21.6961 34.9865 21.8842 35.1759 22.1166 35.1759H25.6248C25.8572 35.1759 26.0453 34.9863 26.0453 34.7526V26.139H29.1893C29.4216 26.139 29.6098 25.9496 29.6098 25.7157L29.6111 22.3021C29.6111 22.1898 29.5667 22.0822 29.4879 22.0027C29.4092 21.9232 29.3019 21.8785 29.1904 21.8785H26.0453V19.8813C26.0453 18.9213 26.2725 18.434 27.5145 18.434L29.3161 18.4334C29.5482 18.4334 29.7364 18.2437 29.7364 18.01V14.8403C29.7364 14.6068 29.5484 14.4173 29.3165 14.4169Z" fill="white"/>
</g>
</svg>
