<svg width="21" height="22" viewBox="0 0 21 22" fill="none" xmlns="http://www.w3.org/2000/svg">
<g id="Group">
<path id="Vector" d="M4.60803 12.9603L3.89018 15.6584L1.26646 15.7143C0.482356 14.2501 0.0375977 12.5747 0.0375977 10.7945C0.0375977 9.07292 0.453436 7.44949 1.19054 6.02002H1.1911L3.52695 6.45118L4.55019 8.78884C4.33603 9.41746 4.2193 10.0923 4.2193 10.7945C4.21938 11.5565 4.35649 12.2867 4.60803 12.9603Z" fill="#FBBB00"/>
<path id="Vector_2" d="M20.4799 8.85498C20.5984 9.48299 20.6601 10.1316 20.6601 10.7944C20.6601 11.5377 20.5825 12.2627 20.4346 12.962C19.9327 15.3418 18.6211 17.4199 16.8041 18.8904L16.8036 18.8898L13.8615 18.7387L13.4451 16.1216C14.6507 15.4097 15.5929 14.2957 16.0892 12.962H10.5754V8.85498H16.1696H20.4799Z" fill="#518EF8"/>
<path id="Vector_3" d="M16.8037 18.8897L16.8042 18.8903C15.0371 20.3203 12.7924 21.176 10.3489 21.176C6.42204 21.176 3.00797 18.9662 1.26636 15.7142L4.60792 12.9602C5.47871 15.3001 7.72059 16.9657 10.3489 16.9657C11.4786 16.9657 12.5369 16.6582 13.4451 16.1215L16.8037 18.8897Z" fill="#28B446"/>
<path id="Vector_4" d="M16.9306 2.80265L13.5901 5.55607C12.6502 4.96456 11.5392 4.62285 10.3489 4.62285C7.66109 4.62285 5.37729 6.36491 4.55012 8.78866L1.19099 6.01984H1.19043C2.90655 2.68858 6.36367 0.412598 10.3489 0.412598C12.8508 0.412598 15.1448 1.30988 16.9306 2.80265Z" fill="#F14336"/>
</g>
</svg>
