<svg width="24" height="24" viewBox="0 0 24 24" fill="none" xmlns="http://www.w3.org/2000/svg">
<g id="Group">
<path id="Vector" d="M15.9972 14.6729C19.6555 14.6729 22.6219 11.719 22.6219 8.07542C22.6219 4.43287 19.6555 1.479 15.9972 1.479C12.3389 1.479 9.37458 4.43287 9.37458 8.07542C9.37458 9.76305 10.145 10.9905 10.145 10.9905L2.13456 18.9674C1.77502 19.3259 1.27188 20.2567 2.13456 21.1163L3.05909 22.0366C3.41862 22.3437 4.32218 22.7735 5.06118 22.0366L6.14084 20.9632C7.2184 22.0366 8.4511 21.4234 8.91337 20.8091C9.68276 19.7358 8.75928 18.6613 8.75928 18.6613L9.06745 18.3542C10.5454 19.827 11.84 18.9685 12.3022 18.3542C13.0727 17.2808 12.3022 16.2064 12.3022 16.2064C11.9941 15.5932 11.3777 15.5932 12.1482 14.8259L13.0727 13.9056C13.8117 14.5188 15.3316 14.6729 15.9993 14.6729H15.9972Z" stroke="black" stroke-opacity="0.5" stroke-width="1.50943" stroke-linejoin="round"/>
<path id="Vector_2" d="M18.309 8.07654C18.3076 8.68797 18.0635 9.27382 17.6302 9.70528C17.197 10.1367 16.6102 10.3785 15.9987 10.3774C15.3873 10.3785 14.8005 10.1367 14.3672 9.70528C13.934 9.27382 13.6899 8.68797 13.6885 8.07654C13.689 7.7737 13.7492 7.47394 13.8656 7.19436C13.982 6.91479 14.1523 6.66088 14.3669 6.44713C14.5814 6.23338 14.8359 6.06398 15.1159 5.9486C15.3959 5.83321 15.6959 5.77411 15.9987 5.77466C16.3016 5.77411 16.6016 5.83321 16.8816 5.9486C17.1616 6.06398 17.4161 6.23338 17.6306 6.44713C17.8451 6.66088 18.0155 6.91479 18.1319 7.19436C18.2483 7.47394 18.3085 7.7737 18.309 8.07654Z" stroke="black" stroke-opacity="0.5" stroke-width="1.50943"/>
</g>
</svg>
