<svg width="120" height="120" viewBox="0 0 120 120" fill="none" xmlns="http://www.w3.org/2000/svg">
<g id="carbon:skill-level">
<path id="Vector" d="M112.5 109.5C112.5 111.157 111.157 112.5 109.5 112.5H85.5C83.8431 112.5 82.5 111.157 82.5 109.5V18C82.5 16.3431 83.8431 15 85.5 15H109.5C111.157 15 112.5 16.3431 112.5 18V109.5ZM90 102C90 103.657 91.3431 105 93 105H102C103.657 105 105 103.657 105 102V25.5C105 23.8431 103.657 22.5 102 22.5H93C91.3431 22.5 90 23.8431 90 25.5V102ZM75 109.5C75 111.157 73.6569 112.5 72 112.5H48C46.3431 112.5 45 111.157 45 109.5V48C45 46.3431 46.3431 45 48 45H72C73.6569 45 75 46.3431 75 48V109.5ZM52.5 102C52.5 103.657 53.8431 105 55.5 105H64.5C66.1569 105 67.5 103.657 67.5 102V55.5C67.5 53.8431 66.1569 52.5 64.5 52.5H55.5C53.8431 52.5 52.5 53.8431 52.5 55.5V102ZM37.5 109.5C37.5 111.157 36.1569 112.5 34.5 112.5H10.5C8.84315 112.5 7.5 111.157 7.5 109.5V70.5C7.5 68.8431 8.84315 67.5 10.5 67.5H34.5C36.1569 67.5 37.5 68.8431 37.5 70.5V109.5ZM15 102C15 103.657 16.3431 105 18 105H27C28.6569 105 30 103.657 30 102V78C30 76.3431 28.6569 75 27 75H18C16.3431 75 15 76.3431 15 78V102Z" fill="black"/>
</g>
</svg>
