<svg width="120" height="120" viewBox="0 0 120 120" fill="none" xmlns="http://www.w3.org/2000/svg">
<g id="ic:outline-shield">
<path id="Vector" d="M62.1067 10.79C60.7484 10.2807 59.2516 10.2807 57.8933 10.79L23.8933 23.54C21.5514 24.4182 20 26.6569 20 29.158V55.45C20 80.1643 36.3342 103.25 58.5473 109.61C59.4961 109.882 60.5039 109.882 61.4527 109.61C83.6658 103.25 100 80.1643 100 55.45V29.158C100 26.6569 98.4486 24.4182 96.1067 23.54L62.1067 10.79ZM90 55.45C90 74.7279 78.154 92.6122 61.8504 98.9383C60.6601 99.4002 59.3399 99.4001 58.1496 98.9385C41.8459 92.6156 30 74.7761 30 55.45V36.108C30 33.6069 31.5514 31.3682 33.8933 30.49L57.8933 21.49C59.2516 20.9807 60.7484 20.9807 62.1067 21.49L86.1067 30.49C88.4486 31.3682 90 33.6069 90 36.108V55.45Z" fill="black"/>
</g>
</svg>
