<svg width="120" height="120" viewBox="0 0 120 120" fill="none" xmlns="http://www.w3.org/2000/svg">
<g id="ic:round-work-outline">
<path id="Vector" d="M70 30V20H50V30H70ZM20 45V90C20 92.75 22.25 95 25 95H95C97.75 95 100 92.75 100 90V45C100 42.25 97.75 40 95 40H25C22.25 40 20 42.25 20 45ZM100 30C105.55 30 110 34.45 110 40V95C110 100.55 105.55 105 100 105H20C14.45 105 10 100.55 10 95L10.05 40C10.05 34.45 14.45 30 20 30H40V20C40 14.45 44.45 10 50 10H70C75.55 10 80 14.45 80 20V30H100Z" fill="black"/>
</g>
</svg>
